<svg width="40" height="40" viewBox="0 0 40 40" fill="none" xmlns="http://www.w3.org/2000/svg">
<path d="M19.6875 21.25C19.6875 21.4986 19.5887 21.7371 19.4129 21.9129C19.2371 22.0887 18.9986 22.1875 18.75 22.1875H11.25C11.0014 22.1875 10.7629 22.0887 10.5871 21.9129C10.4113 21.7371 10.3125 21.4986 10.3125 21.25C10.3125 21.0014 10.4113 20.7629 10.5871 20.5871C10.7629 20.4113 11.0014 20.3125 11.25 20.3125H18.75C18.9986 20.3125 19.2371 20.4113 19.4129 20.5871C19.5887 20.7629 19.6875 21.0014 19.6875 21.25ZM18.75 15.3125H11.25C11.0014 15.3125 10.7629 15.4113 10.5871 15.5871C10.4113 15.7629 10.3125 16.0014 10.3125 16.25C10.3125 16.4986 10.4113 16.7371 10.5871 16.9129C10.7629 17.0887 11.0014 17.1875 11.25 17.1875H18.75C18.9986 17.1875 19.2371 17.0887 19.4129 16.9129C19.5887 16.7371 19.6875 16.4986 19.6875 16.25C19.6875 16.0014 19.5887 15.7629 19.4129 15.5871C19.2371 15.4113 18.9986 15.3125 18.75 15.3125ZM35.9375 25.0969V35C35.9379 35.1647 35.8948 35.3267 35.8127 35.4695C35.7306 35.6123 35.6123 35.731 35.4697 35.8135C35.3271 35.8961 35.1653 35.9396 35.0005 35.9397C34.8358 35.9398 34.6739 35.8964 34.5313 35.8141L30.625 33.5797L26.7188 35.8141C26.5761 35.8964 26.4142 35.9398 26.2495 35.9397C26.0847 35.9396 25.9229 35.8961 25.7803 35.8135C25.6377 35.731 25.5194 35.6123 25.4373 35.4695C25.3552 35.3267 25.3121 35.1647 25.3125 35V30.9375H6.25C5.66984 30.9375 5.11344 30.707 4.7032 30.2968C4.29297 29.8866 4.0625 29.3302 4.0625 28.75V8.75C4.0625 8.16984 4.29297 7.61344 4.7032 7.2032C5.11344 6.79297 5.66984 6.5625 6.25 6.5625H33.75C34.3302 6.5625 34.8866 6.79297 35.2968 7.2032C35.707 7.61344 35.9375 8.16984 35.9375 8.75V13.6531C36.7259 14.3832 37.3549 15.2683 37.7851 16.253C38.2152 17.2376 38.4373 18.3005 38.4373 19.375C38.4373 20.4495 38.2152 21.5124 37.7851 22.497C37.3549 23.4817 36.7259 24.3668 35.9375 25.0969ZM30.625 13.4375C29.4507 13.4375 28.3027 13.7857 27.3263 14.4381C26.3499 15.0906 25.5889 16.0179 25.1395 17.1028C24.6901 18.1878 24.5725 19.3816 24.8016 20.5333C25.0307 21.6851 25.5962 22.7431 26.4266 23.5734C27.2569 24.4038 28.3149 24.9693 29.4667 25.1984C30.6184 25.4275 31.8123 25.3099 32.8972 24.8605C33.9821 24.4111 34.9094 23.6501 35.5619 22.6737C36.2143 21.6973 36.5625 20.5493 36.5625 19.375C36.5625 17.8003 35.9369 16.2901 34.8235 15.1766C33.71 14.0631 32.1997 13.4375 30.625 13.4375ZM25.3125 29.0625V25.0969C23.9445 23.8202 23.0802 22.095 22.8767 20.2349C22.6732 18.3749 23.144 16.5035 24.2036 14.9613C25.2632 13.4191 26.8411 12.3083 28.6504 11.8311C30.4597 11.3539 32.3801 11.5419 34.0625 12.3609V8.75C34.0625 8.66712 34.0296 8.58763 33.971 8.52903C33.9124 8.47042 33.8329 8.4375 33.75 8.4375H6.25C6.16712 8.4375 6.08763 8.47042 6.02903 8.52903C5.97042 8.58763 5.9375 8.66712 5.9375 8.75V28.75C5.9375 28.8329 5.97042 28.9124 6.02903 28.971C6.08763 29.0296 6.16712 29.0625 6.25 29.0625H25.3125ZM34.0625 26.3891C32.9927 26.9144 31.8168 27.1876 30.625 27.1876C29.4332 27.1876 28.2573 26.9144 27.1875 26.3891V33.3844L30.1563 31.6859C30.2988 31.6037 30.4604 31.5603 30.625 31.5603C30.7896 31.5603 30.9512 31.6037 31.0938 31.6859L34.0625 33.3844V26.3891Z" fill="black"/>
</svg>
