<svg width="40" height="40" viewBox="0 0 40 40" fill="none" xmlns="http://www.w3.org/2000/svg">
<path d="M35 24.0625H34.6875V21.25C34.6794 18.1767 33.7112 15.1828 31.9182 12.6867C30.1253 10.1906 27.5973 8.31715 24.6875 7.32813V6.25C24.6875 5.66984 24.457 5.11344 24.0468 4.7032C23.6366 4.29297 23.0802 4.0625 22.5 4.0625H17.5C16.9198 4.0625 16.3634 4.29297 15.9532 4.7032C15.543 5.11344 15.3125 5.66984 15.3125 6.25V7.32813C12.4027 8.31715 9.87468 10.1906 8.08175 12.6867C6.28883 15.1828 5.32063 18.1767 5.3125 21.25V24.0625H5C4.41984 24.0625 3.86344 24.293 3.4532 24.7032C3.04297 25.1134 2.8125 25.6698 2.8125 26.25V30C2.8125 30.5802 3.04297 31.1366 3.4532 31.5468C3.86344 31.957 4.41984 32.1875 5 32.1875H35C35.5802 32.1875 36.1366 31.957 36.5468 31.5468C36.957 31.1366 37.1875 30.5802 37.1875 30V26.25C37.1875 25.6698 36.957 25.1134 36.5468 24.7032C36.1366 24.293 35.5802 24.0625 35 24.0625ZM32.8125 21.25V24.0625H24.6875V9.325C27.0788 10.2726 29.1311 11.9153 30.5795 14.041C32.0278 16.1667 32.8056 18.6778 32.8125 21.25ZM17.5 5.9375H22.5C22.5829 5.9375 22.6624 5.97042 22.721 6.02903C22.7796 6.08763 22.8125 6.16712 22.8125 6.25V24.0625H17.1875V6.25C17.1875 6.16712 17.2204 6.08763 17.279 6.02903C17.3376 5.97042 17.4171 5.9375 17.5 5.9375ZM7.1875 21.25C7.19437 18.6778 7.97219 16.1667 9.42052 14.041C10.8689 11.9153 12.9212 10.2726 15.3125 9.325V24.0625H7.1875V21.25ZM35.3125 30C35.3125 30.0829 35.2796 30.1624 35.221 30.221C35.1624 30.2796 35.0829 30.3125 35 30.3125H5C4.91712 30.3125 4.83763 30.2796 4.77903 30.221C4.72042 30.1624 4.6875 30.0829 4.6875 30V26.25C4.6875 26.1671 4.72042 26.0876 4.77903 26.029C4.83763 25.9704 4.91712 25.9375 5 25.9375H35C35.0829 25.9375 35.1624 25.9704 35.221 26.029C35.2796 26.0876 35.3125 26.1671 35.3125 26.25V30Z" fill="black"/>
</svg>
