<svg width="40" height="40" viewBox="0 0 40 40" fill="none" xmlns="http://www.w3.org/2000/svg">
<path d="M30.9375 11.8187V6.25C30.9375 5.66984 30.707 5.11344 30.2968 4.7032C29.8866 4.29297 29.3302 4.0625 28.75 4.0625H11.25C10.6698 4.0625 10.1134 4.29297 9.7032 4.7032C9.29297 5.11344 9.0625 5.66984 9.0625 6.25V11.875C9.06322 12.2145 9.14261 12.5492 9.29443 12.8528C9.44624 13.1564 9.66636 13.4207 9.9375 13.625L18.4375 20L9.9375 26.375C9.66636 26.5793 9.44624 26.8436 9.29443 27.1472C9.14261 27.4508 9.06322 27.7855 9.0625 28.125V33.75C9.0625 34.3302 9.29297 34.8866 9.7032 35.2968C10.1134 35.707 10.6698 35.9375 11.25 35.9375H28.75C29.3302 35.9375 29.8866 35.707 30.2968 35.2968C30.707 34.8866 30.9375 34.3302 30.9375 33.75V28.1812C30.9365 27.8431 30.8577 27.5098 30.707 27.2071C30.5563 26.9044 30.3379 26.6405 30.0688 26.4359L21.5625 20L30.0766 13.5641C30.3443 13.3587 30.5612 13.0944 30.7105 12.7918C30.8598 12.4891 30.9375 12.1562 30.9375 11.8187ZM10.9375 6.25C10.9375 6.16712 10.9704 6.08763 11.029 6.02903C11.0876 5.97042 11.1671 5.9375 11.25 5.9375H28.75C28.8329 5.9375 28.9124 5.97042 28.971 6.02903C29.0296 6.08763 29.0625 6.16712 29.0625 6.25V11.8187C29.0627 11.8671 29.0516 11.9149 29.0302 11.9583C29.0088 12.0017 28.9776 12.0395 28.9391 12.0687L27.9531 12.8125H11.9797L11.0625 12.125C11.0237 12.0959 10.9922 12.0581 10.9705 12.0148C10.9488 11.9714 10.9375 11.9235 10.9375 11.875V6.25ZM20 18.8266L14.4797 14.6875H25.4688L20 18.8266ZM29.0625 28.1812V33.75C29.0625 33.8329 29.0296 33.9124 28.971 33.971C28.9124 34.0296 28.8329 34.0625 28.75 34.0625H11.25C11.1671 34.0625 11.0876 34.0296 11.029 33.971C10.9704 33.9124 10.9375 33.8329 10.9375 33.75V28.125C10.9375 28.0765 10.9488 28.0286 10.9705 27.9852C10.9922 27.9419 11.0237 27.9041 11.0625 27.875L19.0625 21.875V26.25C19.0625 26.4986 19.1613 26.7371 19.3371 26.9129C19.5129 27.0887 19.7514 27.1875 20 27.1875C20.2486 27.1875 20.4871 27.0887 20.6629 26.9129C20.8387 26.7371 20.9375 26.4986 20.9375 26.25V21.8844L28.9391 27.9312C28.9776 27.9605 29.0088 27.9983 29.0302 28.0417C29.0516 28.0851 29.0627 28.1329 29.0625 28.1812Z" fill="black"/>
</svg>
