<svg width="53" height="36" viewBox="0 0 53 36" fill="none" xmlns="http://www.w3.org/2000/svg">
<path d="M31.9162 0.000335693L18.7521 35.9691L18.7423 35.9994H2.80092L0.000137329 28.2054H15.4015V21.5257H5.381V13.7318H15.4015V7.79428H1.66908L3.88197 0.000335693H31.9162Z" fill="black"/>
<path d="M20.9404 35.9992L34.1045 0.030426L34.1142 0.000152588H50.0556L52.8564 7.7941H37.455V14.4738H47.4756V22.2677H37.455V28.2052H51.1875L48.9746 35.9992H20.9404Z" fill="black"/>
<path d="M37.8869 6.85291C35.8697 5.28553 33.4509 4.31963 30.909 4.06639C28.367 3.81315 25.8052 4.28286 23.5185 5.42147C21.2317 6.56007 19.3129 8.32127 17.9831 10.5023C16.6532 12.6834 15.9662 15.1957 16.0013 17.75C16.0363 20.3043 16.792 22.7968 18.1812 24.9405C19.5704 27.0843 21.5368 28.7922 23.8539 29.8676C26.1711 30.943 28.7448 31.3422 31.2788 31.0193C33.8129 30.6964 36.2043 29.6645 38.1777 28.0424L33.6074 22.4825C32.6811 23.2439 31.5586 23.7283 30.3691 23.8798C29.1796 24.0314 27.9715 23.844 26.8839 23.3392C25.7962 22.8344 24.8732 22.0327 24.2211 21.0265C23.569 20.0202 23.2143 18.8502 23.1978 17.6512C23.1814 16.4522 23.5038 15.273 24.1281 14.2492C24.7523 13.2254 25.653 12.3987 26.7264 11.8642C27.7998 11.3298 29.0023 11.1093 30.1955 11.2282C31.3887 11.347 32.524 11.8004 33.4709 12.5362L37.8869 6.85291Z" fill="white"/>
</svg>
