<svg width="40" height="40" viewBox="0 0 40 40" fill="none" xmlns="http://www.w3.org/2000/svg">
<path d="M20 6.5625C17.0951 6.5625 14.2554 7.42391 11.8401 9.03779C9.42472 10.6517 7.54219 12.9455 6.43053 15.6293C5.31886 18.3131 5.028 21.2663 5.59472 24.1154C6.16144 26.9645 7.56029 29.5815 9.61438 31.6356C11.6685 33.6897 14.2855 35.0886 17.1346 35.6553C19.9837 36.222 22.9369 35.9311 25.6207 34.8195C28.3045 33.7078 30.5983 31.8253 32.2122 29.4099C33.8261 26.9946 34.6875 24.1549 34.6875 21.25C34.683 17.356 33.1341 13.6228 30.3806 10.8694C27.6272 8.11594 23.894 6.56705 20 6.5625ZM20 34.0625C17.4659 34.0625 14.9888 33.3111 12.8818 31.9032C10.7748 30.4953 9.13255 28.4943 8.1628 26.1531C7.19305 23.812 6.93932 21.2358 7.4337 18.7504C7.92807 16.265 9.14834 13.9821 10.9402 12.1902C12.7321 10.3983 15.015 9.17806 17.5004 8.68369C19.9858 8.18932 22.562 8.44305 24.9031 9.41279C27.2443 10.3825 29.2454 12.0248 30.6532 14.1318C32.0611 16.2388 32.8125 18.7159 32.8125 21.25C32.8084 24.6468 31.4572 27.9033 29.0552 30.3052C26.6533 32.7072 23.3968 34.0584 20 34.0625ZM26.9125 14.3375C27.0881 14.5133 27.1867 14.7516 27.1867 15C27.1867 15.2484 27.0881 15.4867 26.9125 15.6625L20.6625 21.9125C20.5767 22.0046 20.4732 22.0785 20.3582 22.1297C20.2432 22.181 20.119 22.2085 19.9932 22.2107C19.8673 22.213 19.7422 22.1898 19.6255 22.1427C19.5088 22.0955 19.4027 22.0253 19.3137 21.9363C19.2247 21.8473 19.1545 21.7412 19.1074 21.6245C19.0602 21.5078 19.037 21.3827 19.0393 21.2568C19.0415 21.131 19.069 21.0068 19.1203 20.8918C19.1715 20.7768 19.2454 20.6733 19.3375 20.5875L25.5875 14.3375C25.7633 14.1619 26.0016 14.0633 26.25 14.0633C26.4984 14.0633 26.7367 14.1619 26.9125 14.3375ZM15.3125 2.5C15.3125 2.25136 15.4113 2.0129 15.5871 1.83709C15.7629 1.66127 16.0014 1.5625 16.25 1.5625H23.75C23.9986 1.5625 24.2371 1.66127 24.4129 1.83709C24.5887 2.0129 24.6875 2.25136 24.6875 2.5C24.6875 2.74864 24.5887 2.9871 24.4129 3.16291C24.2371 3.33873 23.9986 3.4375 23.75 3.4375H16.25C16.0014 3.4375 15.7629 3.33873 15.5871 3.16291C15.4113 2.9871 15.3125 2.74864 15.3125 2.5Z" fill="black"/>
</svg>
