<svg width="40" height="40" viewBox="0 0 40 40" fill="none" xmlns="http://www.w3.org/2000/svg">
<path d="M17.5933 24.7547C19.3342 23.768 20.6996 22.2327 21.4764 20.3885C22.2532 18.5443 22.3977 16.4948 21.8875 14.5599C21.3772 12.6249 20.2409 10.9132 18.6557 9.69181C17.0705 8.47045 15.1257 7.80811 13.1245 7.80811C11.1234 7.80811 9.17854 8.47045 7.59336 9.69181C6.00818 10.9132 4.87183 12.6249 4.36158 14.5599C3.85134 16.4948 3.99589 18.5443 4.77269 20.3885C5.54949 22.2327 6.91486 23.768 8.65579 24.7547C5.42918 25.7834 2.6582 27.8974 0.813598 30.7375C0.677674 30.9458 0.630039 31.1995 0.681172 31.4428C0.732305 31.6862 0.878018 31.8993 1.08625 32.0352C1.29449 32.1711 1.54819 32.2187 1.79155 32.1676C2.03491 32.1165 2.24799 31.9708 2.38391 31.7625C3.54736 29.9737 5.13918 28.5038 7.01484 27.4862C8.89051 26.4686 10.9906 25.9357 13.1245 25.9357C15.2584 25.9357 17.3586 26.4686 19.2342 27.4862C21.1099 28.5038 22.7017 29.9737 23.8652 31.7625C24.0099 31.9481 24.2192 32.0724 24.4514 32.1108C24.6836 32.1491 24.9217 32.0988 25.1185 31.9697C25.3153 31.8406 25.4563 31.6422 25.5136 31.414C25.5709 31.1857 25.5402 30.9442 25.4277 30.7375C23.585 27.8988 20.817 25.785 17.5933 24.7547ZM5.93704 16.875C5.93704 15.4535 6.35857 14.0638 7.14835 12.8819C7.93812 11.6999 9.06065 10.7786 10.374 10.2346C11.6873 9.69064 13.1325 9.5483 14.5267 9.82563C15.921 10.103 17.2017 10.7875 18.2069 11.7927C19.2121 12.7979 19.8966 14.0786 20.1739 15.4728C20.4513 16.8671 20.3089 18.3122 19.7649 19.6256C19.2209 20.9389 18.2997 22.0614 17.1177 22.8512C15.9357 23.641 14.5461 24.0625 13.1245 24.0625C11.2191 24.06 9.39233 23.302 8.04494 21.9546C6.69756 20.6072 5.93952 18.7805 5.93704 16.875ZM38.9058 32.0313C38.6977 32.1671 38.4443 32.2147 38.2011 32.1637C37.9579 32.1127 37.7449 31.9673 37.6089 31.7594C36.4475 29.9704 34.8569 28.5005 32.982 27.4836C31.1071 26.4667 29.0075 25.9352 26.8745 25.9375C26.6259 25.9375 26.3874 25.8388 26.2116 25.6629C26.0358 25.4871 25.937 25.2487 25.937 25C25.937 24.7514 26.0358 24.5129 26.2116 24.3371C26.3874 24.1613 26.6259 24.0625 26.8745 24.0625C27.9329 24.0615 28.9781 23.8267 29.9352 23.3749C30.8924 22.9231 31.7379 22.2655 32.4115 21.4491C33.0851 20.6327 33.57 19.6776 33.8317 18.652C34.0933 17.6264 34.1253 16.5558 33.9252 15.5164C33.7252 14.4771 33.298 13.4948 32.6743 12.6396C32.0506 11.7845 31.2458 11.0777 30.3173 10.5696C29.3887 10.0616 28.3595 9.76492 27.303 9.70075C26.2466 9.63659 25.189 9.80654 24.2058 10.1985C24.0913 10.2453 23.9686 10.2691 23.8449 10.2684C23.7212 10.2676 23.5988 10.2424 23.4849 10.1941C23.371 10.1459 23.2677 10.0755 23.1811 9.98717C23.0945 9.89882 23.0262 9.79419 22.9802 9.67932C22.9342 9.56446 22.9114 9.44162 22.9131 9.3179C22.9148 9.19419 22.941 9.07203 22.9902 8.95848C23.0393 8.84493 23.1105 8.74223 23.1995 8.6563C23.2885 8.57038 23.3937 8.50293 23.5089 8.45784C25.6414 7.60764 28.0172 7.59848 30.1562 8.43222C32.2952 9.26595 34.0381 10.8804 35.0328 12.9495C36.0275 15.0186 36.1998 17.3881 35.5149 19.5794C34.8301 21.7706 33.3392 23.6203 31.3433 24.7547C34.5699 25.7834 37.3409 27.8974 39.1855 30.7375C39.3195 30.9463 39.3654 31.1997 39.313 31.4422C39.2605 31.6847 39.1141 31.8965 38.9058 32.0313Z" fill="black"/>
</svg>
