<svg width="32" height="32" viewBox="0 0 32 32" fill="none" xmlns="http://www.w3.org/2000/svg">
<path d="M12.0065 15.5865C11.0072 13.7782 10.5926 11.7047 10.8197 9.65111C11.0467 7.59754 11.9043 5.66471 13.2744 4.11831C14.6446 2.57191 16.4601 1.48787 18.4714 1.01521C20.4827 0.542543 22.591 0.70446 24.5065 1.4787L18.2565 8.25214L19.1409 12.3678L23.2565 13.2521L30.0299 7.00214C30.8042 8.91766 30.9661 11.026 30.4934 13.0373C30.0208 15.0486 28.9367 16.8641 27.3903 18.2342C25.8439 19.6044 23.9111 20.4619 21.8575 20.689C19.804 20.916 17.7305 20.5014 15.9221 19.5021L7.16275 29.6584C6.45827 30.3629 5.50279 30.7586 4.5065 30.7586C3.51022 30.7586 2.55474 30.3629 1.85025 29.6584C1.14577 28.9539 0.75 27.9984 0.75 27.0021C0.75 26.0059 1.14577 25.0504 1.85025 24.3459L12.0065 15.5865Z" stroke="black" stroke-width="1.5" stroke-linecap="round" stroke-linejoin="round"/>
</svg>
