<svg width="32" height="32" viewBox="0 0 32 32" fill="none" xmlns="http://www.w3.org/2000/svg">
<g clip-path="url(#clip0_60_120)">
<path d="M4 14V20" stroke="black" stroke-width="1.5" stroke-linecap="round" stroke-linejoin="round"/>
<path d="M12 6H19" stroke="black" stroke-width="1.5" stroke-linecap="round" stroke-linejoin="round"/>
<path d="M24.625 20.8333L20.8982 24.7563C20.7499 24.9122 20.5488 24.9999 20.3391 25H12.6817C12.472 24.9999 12.271 24.9122 12.1226 24.7563L8.23156 20.6604C8.08338 20.5043 8.0001 20.2926 8 20.0719V10.8333C8 10.6123 8.08341 10.4004 8.23187 10.2441C8.38034 10.0878 8.5817 10 8.79167 10H20.3391C20.5488 10.0001 20.7499 10.0878 20.8982 10.2437L24.625 14.1667H26.2083C26.4183 14.1667 26.6197 14.2545 26.7681 14.4107C26.9166 14.567 27 14.779 27 15V20C27 20.221 26.9166 20.433 26.7681 20.5893C26.6197 20.7455 26.4183 20.8333 26.2083 20.8333H24.625Z" stroke="black" stroke-width="1.5" stroke-linecap="round" stroke-linejoin="round"/>
<path d="M4 17H8" stroke="black" stroke-width="1.5" stroke-linecap="round" stroke-linejoin="round"/>
<path d="M16 6V10" stroke="black" stroke-width="1.5" stroke-linecap="round" stroke-linejoin="round"/>
</g>
<defs>
<clipPath id="clip0_60_120">
<rect width="32" height="32" fill="white"/>
</clipPath>
</defs>
</svg>
